<?xml version="1.0" standalone="no"?>
<!DOCTYPE svg PUBLIC "-//W3C//DTD SVG 20010904//EN"
 "http://www.w3.org/TR/2001/REC-SVG-20010904/DTD/svg10.dtd">
<svg version="1.0" xmlns="http://www.w3.org/2000/svg"
 width="700.000000pt" height="700.000000pt" viewBox="0 0 700.000000 700.000000"
 preserveAspectRatio="xMidYMid meet">
<metadata>
Created by potrace 1.14, written by Peter Selinger 2001-2017
</metadata>
<g transform="translate(0.000000,700.000000) scale(0.100000,-0.100000)"
fill="#000000" stroke="none">
<path d="M3453 4225 c-49 -44 -181 -111 -258 -130 -89 -23 -141 -28 -240 -28
l-91 1 2 -226 c1 -235 6 -294 30 -398 63 -274 253 -517 504 -644 89 -45 92
-45 172 -5 269 135 452 372 519 673 18 83 22 133 24 348 l2 252 -86 0 c-186 0
-344 51 -493 158 l-47 33 -38 -34z m417 -495 c0 -3 -103 -110 -228 -238 l-228
-233 -130 136 c-71 75 -130 139 -131 143 -2 4 14 27 35 52 l39 44 93 -67 94
-66 31 23 c16 13 104 78 194 144 l164 120 34 -26 c18 -15 33 -29 33 -32z"/>
</g>
</svg>
