<svg xmlns="http://www.w3.org/2000/svg" version="1.1" xmlns:xlink="http://www.w3.org/1999/xlink" xmlns:svgjs="http://svgjs.dev/svgjs" width="128" height="128" viewBox="0 0 128 128"><g transform="matrix(0.8046875,0,0,0.8046875,12.333870967741937,12.333870967741937)"><svg viewBox="0 0 155 155" data-background-color="#1b4571" preserveAspectRatio="xMidYMid meet" height="128" width="128" xmlns="http://www.w3.org/2000/svg" xmlns:xlink="http://www.w3.org/1999/xlink"><g id="tight-bounds" transform="matrix(1,0,0,1,0.25,0.25)"><svg viewBox="0 0 154.5 154.5" height="154.5" width="154.5"><g><svg></svg></g><g><svg viewBox="0 0 154.5 154.5" height="154.5" width="154.5"><g transform="matrix(1,0,0,1,60.03954975,56.5974597)"><svg viewBox="0 0 34.4209005 41.3050806" height="41.3050806" width="34.4209005"><g><svg viewBox="0 0 34.4209005 41.3050806" height="41.3050806" width="34.4209005"><g><svg viewBox="0 0 34.4209005 41.3050806" height="41.3050806" width="34.4209005"><g id="textblocktransform"><svg viewBox="0 0 34.4209005 41.3050806" height="41.3050806" width="34.4209005" id="textblock"><g><svg viewBox="0 0 34.4209005 41.3050806" height="41.3050806" width="34.4209005"><g><svg viewBox="0 0 34.4209005 41.3050806" height="41.3050806" width="34.4209005"><g><svg xmlns="http://www.w3.org/2000/svg" xmlns:xlink="http://www.w3.org/1999/xlink" version="1.1" x="0" y="0" viewBox="12.5 5 75 90" enable-background="new 0 0 100 100" xml:space="preserve" height="41.3050806" width="34.4209005" class="icon-icon-0" data-fill-palette-color="accent" id="icon-0"></svg></g></svg></g></svg></g></svg></g></svg></g><g></g></svg></g></svg></g></svg></g><defs></defs><mask id="ba554062-3f1f-4128-960e-298c470c7b39"><g id="SvgjsG1020"><svg viewBox="0 0 154.5 154.5" height="154.5" width="154.5"><g><svg></svg></g><g><svg viewBox="0 0 154.5 154.5" height="154.5" width="154.5"><g transform="matrix(1,0,0,1,60.03954975,56.5974597)"><svg viewBox="0 0 34.4209005 41.3050806" height="41.3050806" width="34.4209005"><g><svg viewBox="0 0 34.4209005 41.3050806" height="41.3050806" width="34.4209005"><g><svg viewBox="0 0 34.4209005 41.3050806" height="41.3050806" width="34.4209005"><g id="SvgjsG1019"><svg viewBox="0 0 34.4209005 41.3050806" height="41.3050806" width="34.4209005" id="SvgjsSvg1018"><g><svg viewBox="0 0 34.4209005 41.3050806" height="41.3050806" width="34.4209005"><g><svg viewBox="0 0 34.4209005 41.3050806" height="41.3050806" width="34.4209005"><g><svg xmlns="http://www.w3.org/2000/svg" xmlns:xlink="http://www.w3.org/1999/xlink" version="1.1" x="0" y="0" viewBox="12.5 5 75 90" enable-background="new 0 0 100 100" xml:space="preserve" height="41.3050806" width="34.4209005" class="icon-icon-0" data-fill-palette-color="accent" id="SvgjsSvg1017"><path d="M81.944 16.668C74.999 16.668 62.5 15.001 50 5 40 15 26.667 16.668 18.889 16.668 15 16.668 12.5 16.25 12.5 16.25v21.475C12.5 82.725 50 95 50 95s37.5-12.275 37.5-57.275V16.25C87.5 16.25 85.417 16.668 81.944 16.668zM45.313 65L29.375 48.125l4.688-5.625 11.25 7.969L68.75 33.125l4.219 3.75L45.313 65z" fill="white"></path></svg></g></svg></g></svg></g></svg></g></svg></g><g></g></svg></g></svg></g><g></g></svg></g><defs><mask></mask></defs></svg></g></mask><linearGradient x1="0.054" x2="0.941" y1="0.5" y2="0.5" id="8380b3b4-ce1d-4cb9-bb76-78ee33995b8b"><stop stop-color="#0f3054" offset="0"></stop><stop stop-color="#3b8dcb" offset="0.498"></stop><stop stop-color="#0f3054" offset="1"></stop></linearGradient><rect width="154.5" height="154.5" fill="url(#8380b3b4-ce1d-4cb9-bb76-78ee33995b8b)" mask="url(#ba554062-3f1f-4128-960e-298c470c7b39)" data-fill-palette-color="accent"></rect></svg><rect width="154.5" height="154.5" fill="none" stroke="none" visibility="hidden"></rect></g></svg></g></svg>